<svg id="Layer_1" data-name="Layer 1" xmlns="http://www.w3.org/2000/svg" viewBox="0 0 758 646"><defs><style>.cls-1{fill:none;}.cls-1,.cls-3{stroke:#005dab;stroke-miterlimit:10.43;stroke-width:0.09px;}.cls-2{fill:#6a8bc6;}.cls-3,.cls-4{fill:#005dab;}</style></defs><path class="cls-1" d="M748.6,598a5.25,5.25,0,0,1-8.4,2.6c-3.3-2.6-2-8.6,2.2-9.5C746.2,590,750,594.3,748.6,598Z"/><path class="cls-1" d="M748.6,598a5.25,5.25,0,0,1-8.4,2.6c-3.3-2.6-2-8.6,2.2-9.5C746.2,590,750,594.3,748.6,598Z"/><path class="cls-2" d="M331.7,8.9a4.87,4.87,0,0,1,1.2.1c0,4.4-.3,9.1,1.8,13.2,1.9,2.2,5.1,2.5,7.9,2.9-2.9.5-6.3.9-8.3,3.4a44,44,0,0,0-1.8,6.2c-.6-1.8-1.1-3.7-1.8-5.5-1.6-3.2-5.6-3.5-8.7-4.2,3.2-.4,7.6-.7,8.7-4.3a62.87,62.87,0,0,0,2-11.5Z"/><path class="cls-2" d="M287.8,45.7c.1-3.5-.1-7.4,2-10.5a9.64,9.64,0,0,1,1.2,5.3c.6,6.6.3,13.3,1,19.9,0,2.7.8,5.7-.7,8.2-1.1-.6-2.2-1.4-2.3-2.8A149.61,149.61,0,0,1,287.8,45.7Z"/><path class="cls-2" d="M319.4,45.6a9.48,9.48,0,0,1,3.1-3.5c1.6,2.1.1,4.5-.9,6.5a233.69,233.69,0,0,0-13.4,36.1c-.6,2-1.2,4.3-3.3,5.3-.9-3.2.2-6.4.9-9.5A136.06,136.06,0,0,1,319.4,45.6Z"/><path class="cls-2" d="M345.4,46.4c1.4-1.3,2.9-2.7,5-2.7-1.7,4-4.8,7.2-7.6,10.4a219.8,219.8,0,0,0-22.2,27.6c-.9,1.1-1.8,2.9-3.5,2.6-1.2-1.4,0-3.3.8-4.6A172.26,172.26,0,0,1,345.4,46.4Z"/><path class="cls-2" d="M272.2,47.2a3.38,3.38,0,0,1,2.7,1.6A138.44,138.44,0,0,1,283.6,63c1.3,2.6,3,5.3,2.7,8.4-3.3-2.3-4.8-6.2-6.9-9.5C277,57,273.9,52.4,272.2,47.2Z"/><path class="cls-2" d="M299.6,57.4c.4-1.3.6-3.3,2.4-3.6.4,7.2-1.1,14.3-1.5,21.4-.6,4.4-.2,9.1-1.8,13.4a6.38,6.38,0,0,1-1.5-3.7A105.92,105.92,0,0,1,299.6,57.4Z"/><path class="cls-2" d="M256.4,58.2c1.1.2,2.4.1,3.2,1.1a211.14,211.14,0,0,1,14.5,15.4c1.5,1.9,3.3,3.9,3.6,6.5-3-.4-4.7-3.1-6.8-4.9-4.5-4.7-9-9.3-13.2-14.4A5.94,5.94,0,0,1,256.4,58.2Z"/><path class="cls-2" d="M353.4,68.4c2.6-1.2,5.2-2.9,8.3-2.6a18,18,0,0,1-3.9,3.4,159.25,159.25,0,0,1-26.9,13.9c0-.1-.1-.4-.1-.5C338.1,77.6,345.5,72.5,353.4,68.4Z"/><path class="cls-2" d="M477.6,66.9c.1,3.9.3,8,1.8,11.8,1.4,2.4,4.5,2.5,7,3.3-2.5.3-5.4.6-6.9,2.8-1.5,2.9-1.6,6.2-1.8,9.4-.5-3.2-.6-6.7-2.2-9.6-1.7-2-4.5-2.2-6.9-2.6,2.6-.8,6.2-.9,7.4-3.8C477.1,74.6,477,70.7,477.6,66.9Z"/><path class="cls-2" d="M379.8,74.7c1,2.8.6,6,1.8,8.8.9,2,3.4,2,5.3,2.3-1.9.6-4.3,1.1-5.4,2.9a25.08,25.08,0,0,0-1.4,6.6c-.2-3.3-.3-7.9-4.4-8.8-.7-.3-1.5-.5-2.2-.8,1.8-.2,3.9-.1,5.1-1.7C380.4,81.2,379.5,77.8,379.8,74.7Z"/><path class="cls-2" d="M280.3,75.4a3.32,3.32,0,0,1,2.7,1.4c2.5,3.3,4.9,6.9,5.8,11.1-1.9-.6-2.9-2.3-3.9-3.8A42.67,42.67,0,0,1,280.3,75.4Z"/><path class="cls-2" d="M255.5,82.3c4.1.3,7.7,2.4,11.4,4.1,2.6,1.3,5.5,2.3,7.3,4.7-4.1-.1-7.9-2-11.6-3.7C260,86,257.3,84.7,255.5,82.3Z"/><path class="cls-2" d="M328,92.6c7.4-2.7,14.8-5.5,22.6-6.6-.2,1.8-2,2.5-3.4,3.2-6.3,2.7-13,4.4-19.6,6.3a25.63,25.63,0,0,1-5.4,1C323.2,94.2,325.9,93.5,328,92.6Z"/><path class="cls-2" d="M410.5,100.2c6.2-1.4,11.3-6.2,17.9-6.2,2.2-.1,4.3.9,6.2,1.8-.4,10.3,2.2,20.4,3.3,30.6a75.21,75.21,0,0,0,2.2,9.1,73.71,73.71,0,0,0,6-12.7c2.8,9.5,5,19.3,9.6,28.2-.4.3-.9.6-1.3.9-1.3-.6-2.6-1.2-4-1.7-.3,5.6.1,11.1,0,16.7a69.13,69.13,0,0,0-11.9-3c0-3-.1-6.1-.1-9.1-6-1.6-11.9,1.3-17.9,1.9.7-3.1,2.2-5.9,2.9-9,3.2-13.1,6.9-26,9.6-39.2a22.38,22.38,0,0,0,.5-5.2c-2.5-1.3-5-2.9-8-2.8-5.3-.4-10.3,2.2-15.6,1.9-2.7,0-5.1-1.3-7.4-2.5C405.1,100.5,407.9,101.2,410.5,100.2Z"/><path class="cls-2" d="M233.9,96.4c1.2-1.7,3.4-2.2,5.4-2.2,5.9-.1,11.8.5,17.7.9,2.6.3,5.3.5,7.7,1.6-1.8,2.3-5,1.8-7.6,1.7C249.4,97.7,241.5,97.8,233.9,96.4Z"/><path class="cls-2" d="M504.7,96.7c2.6.6,4,3.1,5.6,5,1.8,2.5,4.2,4.8,4.9,7.8-2-.9-3.3-2.8-4.7-4.4A69.61,69.61,0,0,1,504.7,96.7Z"/><path class="cls-2" d="M338.7,99.6a85.49,85.49,0,0,1,25.2,1.7c3.2.8,6.5,1.3,9.2,3.3-1.8,1-3.7.2-5.5-.1a119,119,0,0,0-23.7-2.9C342,101.3,339.6,101.5,338.7,99.6Z"/><path class="cls-2" d="M314.7,102.4c3.5-1.1,7.1-.4,10.6,0a59.85,59.85,0,0,1,10.2,2.2c-.1.3-.3.9-.4,1.1-4.8.4-9.5-.8-14.3-1.4C318.7,104,316.4,103.9,314.7,102.4Z"/><path class="cls-2" d="M230.7,103.8c5.6-.8,11.2-.7,16.8-1.1a35.43,35.43,0,0,1,9.2.8,2.59,2.59,0,0,1-1.9,1.3c-6.8,1.6-13.8,1.3-20.6,1.2a15.65,15.65,0,0,1-6.1-1A4.2,4.2,0,0,1,230.7,103.8Z"/><path class="cls-2" d="M529.1,108.2a14.63,14.63,0,0,0,.9-1.3c.3,1.1.6,2.1.8,3.2a50,50,0,0,1,.1,6.7l-1.1.8A74.32,74.32,0,0,1,529.1,108.2Z"/><path class="cls-2" d="M517.5,108a4,4,0,0,1,2.3,1.2,22.83,22.83,0,0,1,5.2,10.7c-1.8-.2-2.2-2-3-3.3A77.63,77.63,0,0,1,517.5,108Z"/><path class="cls-2" d="M490.4,108.7a49.08,49.08,0,0,1,13.8,5.7,5.27,5.27,0,0,1,2.5,2.8c-3.9-.9-7-3.6-10.8-4.9C494.1,111.2,491.1,111.1,490.4,108.7Z"/><path class="cls-2" d="M250.9,120.9c7.1-3.7,13.9-8,21.5-10.5.2,2.3-2.2,3.3-3.7,4.6a184.27,184.27,0,0,1-21.1,11.1,8.36,8.36,0,0,1-4.4.7C244.5,123.5,248.2,122.6,250.9,120.9Z"/><path class="cls-2" d="M237.3,116.3c4.9-1.9,9.7-4.4,15-4.5-3.1,2.8-7.2,4.1-11,5.7-3.9,1.2-7.8,2.9-11.9,2.9C231.5,118.3,234.6,117.5,237.3,116.3Z"/><path class="cls-2" d="M336.3,112.9c4.8-.2,9.5,1.2,14.1,2.1,3.1.9,6.8,1.2,8.9,4.1a5.27,5.27,0,0,1-3.7.4c-3.2-.7-6.4-1.7-9.5-2.6C342.7,115.9,339.2,115.1,336.3,112.9Z"/><path class="cls-2" d="M538.3,119.9a27.73,27.73,0,0,1,9.9-7.4c0,.4-.1,1.1-.1,1.4C545,116.1,542.2,119.2,538.3,119.9Z"/><path class="cls-2" d="M318.1,113.2c4.9,0,9.2,3,13.6,4.8,1.5,1,4.5,1.8,3.5,4.1-2.2.9-4.1-.8-6.1-1.6C325.2,118.4,320.9,116.8,318.1,113.2Z"/><path class="cls-2" d="M517.5,118.8c-2-1.6-4.1-3.2-5.3-5.5,3.7,2,7.4,4.3,9.8,7.8C520.2,121.2,518.8,119.9,517.5,118.8Z"/><path class="cls-2" d="M274.6,120.2a14.48,14.48,0,0,1,5.4-3.7c-4.4,6.2-9.6,11.7-14.4,17.6-2.8,3.2-5.3,6.6-8.1,9.8-.8,1-2.1.9-3.1,1.2,0-3.3,2.7-5.6,4.5-8C263.9,131.3,269.1,125.6,274.6,120.2Z"/><path class="cls-2" d="M484.1,117.1c5.6-1.3,11.9.6,16.4,4-5.2-1.4-10.5-2.8-16-2.7C484.4,118.1,484.2,117.4,484.1,117.1Z"/><path class="cls-2" d="M306.6,117.5c3,2.4,4.5,6.2,6.4,9.5,3.7,7.4,7.3,14.9,10.4,22.6a10.76,10.76,0,0,1,.8,5c-2.4-2.1-3.8-5-5.3-7.8-3.4-6.5-6.4-13.2-9.5-19.9C308.2,123.8,306.7,120.8,306.6,117.5Z"/><path class="cls-2" d="M289.5,128.6c1.1-2.6,1.8-6,4.5-7.5a20,20,0,0,1-1,8.4c-4.7,17.5-9.9,34.9-14.3,52.4-1,3.2-.7,7.4-4,9.3-1.1-3.2.1-6.6.7-9.8C279.6,163.6,283.8,145.9,289.5,128.6Z"/><path class="cls-2" d="M480.3,123.6c1.1-2.1,3.9-1.8,5.9-2,4.5-.1,9.5-.4,13.5,2.2C493.2,123.8,486.8,123.7,480.3,123.6Z"/><path class="cls-2" d="M279.9,126.2c1.6-2,3.2-4.1,5.8-4.7.4,2.9-1.7,4.9-3.4,7-8,9.2-15.6,18.8-22.8,28.7a28.19,28.19,0,0,1-7.4,7.6c.4-2.8,2.3-4.9,3.7-7.2C263.4,146.8,271.8,136.6,279.9,126.2Z"/><path class="cls-2" d="M501.5,126.5c2.7-2.5,7.1-2.5,10.3-.9A91.48,91.48,0,0,1,501.5,126.5Z"/><path class="cls-2" d="M516.8,124.4a7.56,7.56,0,0,1,7.2,3.2A11.6,11.6,0,0,1,516.8,124.4Z"/><path class="cls-2" d="M318.5,124.8a9.88,9.88,0,0,1,3.3,1.5c7,5.1,14.5,9.6,21,15.3a26.74,26.74,0,0,1,5,5.6c-.2.5-.5,1.4-.7,1.9a15.24,15.24,0,0,1-4.1-2.4c-6.6-5.4-13.2-10.8-19.9-16.1C321.2,129.1,318.8,127.5,318.5,124.8Z"/><path class="cls-2" d="M537.9,128.4c2.5-2.3,6.4-2.1,9.7-2.3.1.3.2.8.3,1.1Z"/><path class="cls-2" d="M546.1,130.1c5.5-.7,10.9.2,16.4.9,1.7.3,4,.3,4.7,2.3-3.8-.3-7.4-1.1-11.2-1.5C552.7,131.3,549.3,131.2,546.1,130.1Z"/><path class="cls-2" d="M515.8,131.9a9,9,0,0,1,7.5-1.4A10.36,10.36,0,0,1,515.8,131.9Z"/><path class="cls-2" d="M298,132.2c1.8,2.4.9,5.6.9,8.3-1,10.7-2,21.4-3.6,31.9-.3,1.9-1.1,4.8-3.6,4.1-.9-2.6,0-5.2.3-7.8,1.2-8.4,2.2-16.8,3.2-25.1C295.8,139.7,296.1,135.7,298,132.2Z"/><path class="cls-2" d="M484.6,135.1c3.1-1.4,6.4-3,9.9-2.4-2.2,1.4-4.8,2-7.2,3.1-2.7,1.1-5.2,2.6-8,3.3C480.3,136.9,482.7,136.2,484.6,135.1Z"/><path class="cls-2" d="M502.6,134.1a19,19,0,0,1,9.1-1.4c-3,1.3-6.2,2.1-9.2,3.2-2.8,1-5.5,2.5-8.5,2.6C496.4,136.4,499.6,135.3,502.6,134.1Z"/><path class="cls-2" d="M542.3,132.6a27.37,27.37,0,0,1,12.8,3,8.34,8.34,0,0,1,2.3,1.9,13.82,13.82,0,0,1-4-1C549.8,135,545.9,134,542.3,132.6Z"/><path class="cls-2" d="M511.9,139.5a65.41,65.41,0,0,1,9.6-6.2c.3,1.6-1.3,2.3-2.2,3.2a57.73,57.73,0,0,1-10.8,6.8C509,141.7,510.5,140.6,511.9,139.5Z"/><path class="cls-2" d="M537.6,134a17.89,17.89,0,0,1,7.8,10.3C542.5,141.2,539.3,138,537.6,134Z"/><path class="cls-2" d="M306.2,135.8c1.6.7,2.2,2.5,2.9,3.9,4.6,10.1,7,21,9.8,31.6,1.3,6.1,3.1,12.3,3.4,18.6-1.6-.9-2.2-2.6-2.8-4.2a117,117,0,0,1-4.8-14.1c-2.6-9.9-5.3-19.8-7.6-29.8A31.09,31.09,0,0,1,306.2,135.8Z"/><path class="cls-2" d="M488.9,149.1c6.4-3.9,12.7-8.1,19.5-11.3-5.5,4.7-11.9,8.2-17.9,12.3-3.3,2-6.4,4.6-10.3,5.3C482.7,152.9,485.9,151.1,488.9,149.1Z"/><path class="cls-2" d="M530.8,137.3c2.5,4.9,4.9,10.3,4.8,16-1.5-2.2-2-4.9-2.8-7.4C532,143,531,140.2,530.8,137.3Z"/><path class="cls-2" d="M524.7,143.4c.7-1.8.9-4.2,2.7-5.3A197.78,197.78,0,0,1,517.1,170a13.45,13.45,0,0,1-1.7,3.1,7.54,7.54,0,0,1,.6-1.3C518.5,162.2,521.8,152.9,524.7,143.4Z"/><path class="cls-2" d="M519.7,141.4a139.14,139.14,0,0,1-13.3,13.3c-1.6,1.3-3,3.2-5.3,3.4,2.8-4,6.8-6.9,10.3-10.2A74.2,74.2,0,0,1,519.7,141.4Z"/><path class="cls-2" d="M559.1,153.7c-3.4-4-7.3-7.5-10.7-11.5a92.76,92.76,0,0,1,14.1,12.4c1.5,2,3.5,3.9,3.3,6.6C563.4,158.9,561.4,156.1,559.1,153.7Z"/><path class="cls-2" d="M537.5,142.7c3.8,3.1,5.8,7.7,7.9,12,2.4,5.8,5.4,11.5,6.3,17.7l-1-.2c-2.8-7.3-5.2-14.9-9-21.8A82.44,82.44,0,0,1,537.5,142.7Z"/><path class="cls-2" d="M519.4,146.4a9.73,9.73,0,0,1,2.2-3.1c-.1,2.6-1.3,4.9-2.2,7.3-2.1,4.8-4,9.7-6.4,14.4-1.4,2.6-2.6,5.4-4.7,7.5a30.67,30.67,0,0,1,2.7-7.7C513.7,158.5,516.5,152.4,519.4,146.4Z"/><path class="cls-2" d="M526.8,151h1.3c1.3,5.1.7,10.3,1.3,15.5-.1,2.2.7,5.3-1.8,6.5a35.8,35.8,0,0,1-.3-6.5C527.4,161.3,526.6,156.2,526.8,151Z"/><path class="cls-2" d="M548.5,151.5c2.7,1.8,4.4,4.6,6.3,7.1,3,4.3,6.3,8.7,6.9,14-2.7-1.5-3.3-4.7-4.9-7.1C554.3,160.6,550.8,156.4,548.5,151.5Z"/><path class="cls-2" d="M265.9,161.1c1.7-2.5,3.7-5,6.4-6.4a14.23,14.23,0,0,1-1.6,4.5c-5.1,9.3-10.4,18.4-15.8,27.5a3.42,3.42,0,0,1-2.9,2c.3-3.6,2.3-6.8,3.8-10C259.1,172.8,262.2,166.8,265.9,161.1Z"/><path class="cls-2" d="M537.1,157.5c2.2,3.3,2.7,7.4,3.7,11.2,1,5,2.4,10,2.4,15.2-2-.8-2-3-2.3-4.7a169.29,169.29,0,0,0-3.5-17.5A11.94,11.94,0,0,1,537.1,157.5Z"/><path class="cls-2" d="M306.1,163.3c2.2,1.9,2,5,2.5,7.6.6,8.4,2,16.9,1.3,25.3-1.8,1-2-1.4-2.3-2.6-.9-8.3-1.9-16.6-2.4-24.9A10.15,10.15,0,0,1,306.1,163.3Z"/><path class="cls-2" d="M532.8,163.5c2,3.1,1.6,6.9,1.9,10.4-.1,5.4.6,11-.6,16.4a7.54,7.54,0,0,0-1.3-.6c-.1-7.5,0-15-.3-22.5A15.42,15.42,0,0,1,532.8,163.5Z"/><path class="cls-2" d="M522.3,167.2a6.33,6.33,0,0,1,1.5-3.2c.5,4.1-.9,8.1-1.6,12.1-1.6,7-2.6,14.3-5.5,21-.3.1-.9.2-1.2.3C517.4,187.2,520.8,177.4,522.3,167.2Z"/><path class="cls-2" d="M524.4,315.2c-13.2-11.5-24.3-25.1-35.2-38.8H485c-.4-6.5.4-13.1-.6-19.6-1-7.7-2.3-15.3-3.3-23-.4-1.9-.6-3.9-.9-5.8-.4-3.1-.8-6.2-1.4-9.3-1.9,9-3.5,18.1-5,27.1-.9,5.9-2.7,11.7-2.2,17.7-.2,4.3.8,8.8-.6,12.9H451a108.57,108.57,0,0,0-.4-11.4c-.1-14.6-.2-29.3-.3-43.9,2.5-2.7,5-5.4,7.4-8.2a60.1,60.1,0,0,0-23.3-4.2,55.33,55.33,0,0,0-18.1,2.4,6.77,6.77,0,0,0-2.6,1.8c1.5,2.2,3.1,4.4,4.7,6.6-.1,6.3.2,12.7.1,19-5.7-12.1-11.4-24.3-17-36.4h-.6c-2.4,3.8-3.7,8.2-6.5,11.7-1.7-3.2-1.2-7-.9-10.5l2.5-.4c-.3-2.9-1.6-5.6-2.5-8.4a155,155,0,0,1-5-17.7c-.8-3.9-1.3-7.9-2.2-11.8-.3,10.9-3.3,21.5-6.5,31.9l-.3.4a43.7,43.7,0,0,0-1.2,4.9c2.7,1.1,5.6.6,8.4.6,0,3.7.1,7.5.1,11.2l-4,.3-1.5-4.2c-2.2-.3-4.4-.4-6.6-.5,0,3.6-.2,7.2.1,10.7.5,1.9,2.8,2.1,4.5,2.3.2,2,.2,3.9.4,5.9-.4,5.2,0,10.4-.2,15.6,0,1.6-.9,2.9-1.5,4.3-2,4-3.8,8-5.7,12a17.27,17.27,0,0,1-3.6-6.5c-2.4-7.1-3.2-14.6-5.2-21.7-2.5,11.4-5.7,22.7-11,33.1a69.7,69.7,0,0,0-10.2.5c0-3.1,0-6.3.1-9.5a10.91,10.91,0,0,0,2.3-2.9c-.6-2-2.1-3.6-3.1-5.5-5.9-9.8-12-19.4-17.8-29.3a3.74,3.74,0,0,0-1.3,1.2c-6.7,11.5-13.5,23.1-20.3,34.6,1.5,1.5,3.7,1.1,5.6,1.1h28c.1,6.7.3,13.3.5,20v.4h-4.2c-.4-2.5-.6-6.8-4-6.8H328a3.08,3.08,0,0,0-1,.1h0c-2.6.7-2.8,4.4-3.2,6.6h-4.4c-.4-2.5-.6-6.9-4.1-6.8-3.5-.1-3.7,4.2-4.2,6.8h-3.8c-.4,8.7-.2,17.4-.4,26H283.4c-3.1,6.4-6,12.8-9.2,19.2-.2-4.4-.1-8.8-.1-13.2h-7.2v6.7h-3v-6.7h-8.1v6.6h-4.6v-6.7h-9.4a40.32,40.32,0,0,0,.4,6c-1.5,1.1-3.4.5-5.1.6v-6.7h-6.8v6.7h-3v-6.7h-7.1c-.1,4.5,0,9.1-.3,13.7-2.2-6.8-4.9-13.3-7-20.1-4.4,10.7-8.5,21.5-12.6,32.3,7.9-.1,15.8,0,23.7-.4-.8-2.6-1.8-5.1-2.7-7.6h50.4c-1.7,4.3-4,8.4-5.9,12.6-2,.4-4,.6-6,.9v7.4c2.1,0,4.2.1,6.3.1v-7.1c2.7-.7,5.5,0,8.2-.1v7c2.3.1,4.7.2,7,.2,0-2.3-.2-4.6-.3-6.9,2.6-.1,5.2-.2,7.9-.2,0,2.5,0,5,.1,7.4,2.3,0,4.5.1,6.8.1v-7.8c2.8,0,5.6,0,8.4-.2.2-1.8.5-3.7.8-5.5,9.4,0,18.8-.3,28.2-.3a5,5,0,0,1,.8.7c.8,3.7.6,7.6.8,11.3.8,22,1.9,44,2.6,66,.5,3.6.3,7.3.5,11h10.4c.3-6.4.8-12.8,1-19.2.7-4.4.3-8.9.9-13.3.5-4.2.1-8.4.8-12.5.2-6.3.7-12.5,1-18.8-2.9-.5-4-3.4-4-6,4.6-.1,9.2-.1,13.7-.2-.8-1.8-1.6-3.5-2.4-5.3-4.7-.2-9.4.3-14-.4.1-6.7,0-13.4,0-20.1a35.33,35.33,0,0,1-4.6-.1c-.4-1.2-.7-2.4-1.1-3.6a1.79,1.79,0,0,0-.9-1h0a1.73,1.73,0,0,0-2.2.6,10,10,0,0,0-1.4,4.2c-2.1,0-4.3,0-6.4-.1-.4-2.1-.4-4.9-3.5-4.9-1.9,0-2,2.3-2.1,5-2,0-4.1.1-6.1-.1-.4-1.2-.7-2.5-1.1-3.7a1.79,1.79,0,0,0-.9-1h0a1.73,1.73,0,0,0-2.2.6,10,10,0,0,0-1.4,4.2h-6.6a22.51,22.51,0,0,0-.9-3.5,1.44,1.44,0,0,0-.9-1.1h0a1.82,1.82,0,0,0-2,0h0a2,2,0,0,0-.9,1.1,22.51,22.51,0,0,0-.9,3.5h-3.5V310.5h7.4V316h7.5c0-1.9,0-3.8-.1-5.7-1.3-.7-2.6-1.4-3.9-2,5-5.9,9.8-11.9,14.6-17.9,4.4,5.9,8.7,12,13.1,17.9a36.17,36.17,0,0,0-3.2,2.2,50.48,50.48,0,0,0-.1,5.5h5.5v-5.5h7.1v10.7h15.5V305.7h7.6v15.5H371v5.2h7.7c0-2,0-4.1-.1-6.2,2.9-.6,5.9-.3,8.8-.4.1,2.2.1,4.3.1,6.5h8.1V303.4h9.7v22.9c2.5.1,5,.1,7.4.1,0-2.2,0-4.4.2-6.6,2.4.2,4.9-.3,7.2.4.8,1.9.2,4.2.4,6.2H428v-5.2h6.8V305.7h7.7v15.5h13.2V310.5h7.4V316h5.7c.3-.4.5-.5.8-.9-.2-1.6-.3-3.1-.6-4.7a11.34,11.34,0,0,0-2.6-1.6c4.9-6,9.9-11.9,14.8-17.8,5,5.9,9.7,12,14.6,17.9-1,.5-2.1,1-3.1,1.5V316h7.1v-5.5h7.6v9h19.7A9.33,9.33,0,0,0,524.4,315.2ZM351,299.8c-2.7,0-5.4,0-8-.1.1-6.4-.6-12.8.6-19.1a12.27,12.27,0,0,1,4-6.7c1.8,1.8,2.6,4.2,3.2,6.7C351.2,287,350.9,293.4,351,299.8Zm18.6-21.9c0,6.9,0,13.8-.1,20.7a22.77,22.77,0,0,1-3.8,3.8c-2.7-.3-6.4.6-7.9-2.2-.8-1-1.6-1.9-2.3-2.9.2-10.1,0-20.2.1-30.4,4.7,0,9.5,0,14.2.1-1.3,3.7-3.2,7.1-4.3,10.9Zm63.6-57.1a32.86,32.86,0,0,1,9.9.1c-.2,9.2.5,18.5-.4,27.6-.8-6.1-2.3-12.1-3-18.2a23.55,23.55,0,0,0-1-4.6c-.2,1.1-.4,2.1-.6,3.2-1.2,6.7-3.3,13.3-4.8,19.9C432.8,239.4,433.4,230.1,433.2,220.8Zm-41.8.4c-2,5.3-4.9,10.2-7.6,15.1-.2-4.9,0-9.9-.1-14.8A19.92,19.92,0,0,1,391.4,221.2Zm35.7,72.4c-17.6.1-35.1,0-52.7,0V277.9h15c.1-9.8,0-19.5,0-29.3.5-.3,1.5-.8,2-1.1a35.75,35.75,0,0,0,1,5.7c.5,1.3,2.2.8,3.3,1.1.4-.3,1.3-.8,1.7-1.1a47,47,0,0,0-.2-5.3c-.4-1.6-.6-3.3-.9-4.9,2.4,0,4.9,0,7.3.1a13.63,13.63,0,0,0-1.7,8.8c.6,1.7,2.5,2.1,4.1,2.4.8-2.2,1.3-4.5,1.9-6.7h2.7c.1,9.9.2,19.9,0,29.8,5.4.2,10.8.5,16.3.5C427.1,283.2,427.1,288.4,427.1,293.6Zm.8-36.6c-1.5-4.2-4.8-8-4.2-12.7,0-8.1,0-16.1.1-24.2,1.6-.1,3.3-.1,4.9-.1C428.6,232.4,428.2,244.7,427.9,257Zm14.3,44.8a49.1,49.1,0,0,1-6.5.6c-1.3-1.5-2.9-2.8-3.8-4.5-.2-6.6-.1-13.3-.2-20,1.6,0,3.2,0,4.9-.1-1.2-3.9-3.9-7-5-10.9,4.8-.1,9.6-.1,14.4-.1,0,9.5-.2,19.1,0,28.6C446.5,298.2,443.9,300,442.2,301.8Z"/><path class="cls-2" d="M414.7,174.7c3.8-3.9,9.2-5.4,14.4-6.2,8.5-1.1,17.6.6,24.4,6.1a30.62,30.62,0,0,1-.5,3.2c-1.2,1.4-3.2,1.8-4.8,2.6-.1,6.3-.2,12.6-.2,18.9-1.2,0-2.3,0-3.5.1a23.51,23.51,0,0,0-.9,5.3l-4.2-.9c-.1-7.6-.3-15.3,0-22.9-6.7-.6-13.6-.4-20,1.7A42.23,42.23,0,0,1,414.7,174.7Z"/><path class="cls-2" d="M547.4,172.5c3.3,3.4,3.9,8.4,5.5,12.7,1.1,4.4,3.3,8.8,2.7,13.4a8.11,8.11,0,0,1-1.7-2.8c-2-6.6-3.8-13.3-6.1-19.8A8.24,8.24,0,0,1,547.4,172.5Z"/><path class="cls-2" d="M262.4,202.8a43.43,43.43,0,0,0,1.1-6.1c0,2.3,0,4.7,1,6.8.9,1.5,2.8,1.8,4.3,2.2-1.2.1-2.4.3-3.6.5a11.21,11.21,0,0,0-1.8,6.9c-.3-2.1-.3-4.4-1.6-6.2-1-1-2.5-1-3.9-1.3C259.6,205.2,262,204.8,262.4,202.8Z"/><path class="cls-2" d="M426.5,198.4c2-.4,4.1-.7,6,.3,0,1.7-.1,3.4-.1,5.1-2,0-4,.1-6,.1C426.5,202.1,426.5,200.3,426.5,198.4Z"/><path class="cls-2" d="M416.7,200.7c1.4-1.5,4,.4,3.5,2.2.4,2.3-2.8,1.5-4.1,2.1C416.1,203.6,415.6,201.9,416.7,200.7Z"/><path class="cls-2" d="M449.6,201c1.2.3,2.5.6,3.8.9,0,1.9,0,3.7-.1,5.6l-3.7-.9A52.3,52.3,0,0,1,449.6,201Z"/><path class="cls-2" d="M309.1,210.2c4.8.8,9.7-.4,14-2.4.1,3.1,0,6.2,0,9.4-5.2,1.9-10.9.7-15.7-1.6-6.3-2.7-13-6.2-20-4.2C294,207.2,302,209.5,309.1,210.2Z"/><path class="cls-2" d="M237.4,252.2a14.71,14.71,0,0,1,8.3.9c.2,4-.2,8,.8,11.9a94.73,94.73,0,0,0,6,17.2,238.13,238.13,0,0,0,11.1,22.7c-11,.6-22,.1-33,.3,6-14.1,12.6-28.2,15.3-43.4-4.2-3.8-10.3-3.8-15.6-2.5a29.72,29.72,0,0,1-11.1.9c-1.6-.7-3.1-1.4-4.7-2.1,3.3.2,6.8.8,10-.5C228.8,255.9,232.8,253.3,237.4,252.2Z"/><path class="cls-2" d="M551.5,260.1c2-.7,4-1.5,6-2.3,0,5.4-.5,11,1.4,16.2,4.1,12.7,10,24.7,16.2,36.5-11,0-22.1.1-33.1,0,3.2-6.9,6.1-14,8.9-21.1,2.6-7.3,5.4-14.5,6.5-22.2a45,45,0,0,1-5.1.8c-9.8.1-17.6-8.1-27.4-7.3h-3.3a28.19,28.19,0,0,1,12.2-1.9C539.6,259.9,545.6,260.8,551.5,260.1Z"/><path class="cls-2" d="M395.4,284V258.2h9.9V284Z"/><path class="cls-2" d="M316.6,311.2h7.3a51.48,51.48,0,0,1-.2,5.5h-7.1Z"/><path class="cls-2" d="M477.5,311.2h7.1c0,1.8,0,3.7-.1,5.5h-7Z"/><path class="cls-2" d="M585.3,331.6c-.1-6,0-11.9-.1-17.9H578v6.8c-1,0-2-.1-3-.1v-6.7h-7.8c0,2.2-.1,4.5-.3,6.7h-4.6v-6.7h-9.2v6.7h-5v-6.7h-6.8v6.8h-2.8v-6.8h-6.9c-.4,6-.2,11.9-.4,17.9Z"/><path class="cls-2" d="M360.9,337.5c4.5-.6,9,0,13.4-.4,2.3-.2,4.7-.2,7.1-.2a33.46,33.46,0,0,1,.5,6.3,1.55,1.55,0,0,1-1.6.8c-3.4.1-6.7.1-10.1.2-.1,10.8,0,21.6-.1,32.4-1.8-.2-3.5-.4-5.2-.5.1-10.3.1-20.5.2-30.8C365.8,341.8,362.2,340.1,360.9,337.5Z"/><path class="cls-2" d="M416.7,337.5c8.3,0,16.7-.1,25-.1.1.5.4,1.5.5,1.9-2,2.6-4.1,5.1-6,7.8,0,10.3,0,20.6-.1,30.9-1.9.1-3.8.3-5.6.4V344.6c-2.3.1-4.6,0-6.9.3a4.23,4.23,0,0,1-.5.7c-.1,6.9.4,13.7.3,20.6H411.8v-5c1.7-.1,3.3-.1,5-.1C416.8,353.2,416.7,345.3,416.7,337.5Z"/><path class="cls-2" d="M244.1,339.7c2.2.1,4.4.2,6.6.4,0,2.7.1,5.5.1,8.2-2.2,0-4.3,0-6.5.1C244.2,345.5,244.1,342.6,244.1,339.7Z"/><path class="cls-2" d="M529.5,339.7c2.2,0,4.4,0,6.5.1,0,2.9.1,5.7.1,8.6-2.2,0-4.3,0-6.5.1C529.6,345.5,529.5,342.6,529.5,339.7Z"/><path class="cls-2" d="M544.5,339.7c2.5.1,5,.2,7.4.4,0,2.7.1,5.5,0,8.2-2.5,0-4.9,0-7.3.1C544.5,345.5,544.5,342.6,544.5,339.7Z"/><path class="cls-2" d="M189.5,352c2.9-2.9,5.8-5.8,8.7-8.6,8.3.1,16.6,0,24.9,0,1.1-.3,1.9.7,2.5,1.4,2.1,2.4,4.2,4.8,6.4,7.2C217.8,352.1,203.7,352.1,189.5,352Z"/><path class="cls-2" d="M391.6,344.7c6.2,0,12.3-.1,18.5.1v8.4c-4.9.2-9.9-.2-14.7.2-.2,4.3,0,8.6-.1,12.9-3.2.1-6.4.1-9.5.1,0-2.2-.1-4.4.1-6.5,1.9,0,3.9-.1,5.8-.2C391.6,354.7,391.6,349.7,391.6,344.7Z"/><path class="cls-2" d="M244.7,359.9a2.62,2.62,0,0,1,.9-3.1,2,2,0,0,1,1.1-.3h53.8a16.78,16.78,0,0,1,.7,5.9c-18.5.4-36.9,0-55.4.1A20.29,20.29,0,0,1,244.7,359.9Z"/><path class="cls-2" d="M188.8,359.9c1.7-2,4.4.2,5.6,1.7-.6,12.4-1.7,24.7-2.3,37,.2.9-.5,2-1.6,1.5-7.5-.4-14.9-.1-22.4-.6a24.86,24.86,0,0,1,9.7-2.1c-5.4-6.4.1-18.7,8.9-18-4.4-2.2-5.6-9.2-1.7-12.5.6,0,1.7.1,2.3.1C187.6,364.7,187.4,362,188.8,359.9Z"/><path class="cls-2" d="M226.6,360.4a10.32,10.32,0,0,1,7.7,7c.8,2.9-1,5.5-2.9,7.5,1.1.7,2.3,1.5,3.5,2.2,1.3-2.7,2.6-6.2,5.8-6.9,2.1-.1,3.5,1.5,4.9,2.9-.7,9.6-1.6,19.2-1.7,28.8,1.8.1,3.9.5,5.1-1.2a27.41,27.41,0,0,1,2.8-.5c-1.9-1.9-3.7-4.9-2-7.5a4.54,4.54,0,0,1,7.4-.3,10.36,10.36,0,0,1,6.2-1.2,24.62,24.62,0,0,0,.2-2.6c-2.3-1.1-5-2.8-4.7-5.7.1-3,3.3-4.8,6.1-4.4-.2-1.9-.9-3.9-.1-5.7,1.2-1.8,3.4-2.5,5.5-2.8,2.5-.4,5.6-.4,7.4,1.8,1.6,2,1.1,4.8,1.2,7.1,2.7-1.5,6.7-.8,7.8,2.4s-2.9,5.6-2,8.9c.1.9,1,1.2,1.6,1.6a15.51,15.51,0,0,1,4.8-4.4c-.3-3.5,1.2-7.4,4.7-8.8,1.5-.9,3.1-.3,4.7.1-.5,15.5-1.3,30.9-1.7,46.4,8.9,2.5,18.1,3,27.1,4.2,7.6.8,15.3,1.7,23,2.4,6.7.9,13.5,1.3,20.2,2.8a13.39,13.39,0,0,1,3.7,1.6,43.48,43.48,0,0,1-5.9,2.5c-7.2,1.8-14.4,3.6-21.7,5-12.1,2.2-24.1,4.6-36.3,6.1-9.1.8-18.5.6-27,4.4,1.4,1.5,3.6,1.1,5.5,1.6,13.9.5,27.8.1,41.7.6a71.82,71.82,0,0,1,8-.2c11.4.6,22.8-.1,34,2.1a3.47,3.47,0,0,1,1.9,1.2c-6.4,1.6-13.1,1.6-19.7,1.9-6.1.6-12.4.5-18.5.6-10.3.8-20.7.5-31.1.4-6.4-.7-12.8-.2-19.2-1-12.5-.8-25-1.9-37.2-4.8-2.4-.8-5.3-1.1-6.7-3.4-.1-2.3,2.8-2.3,4.4-3a311.2,311.2,0,0,1,49-6.2c9.7-.8,19.4-1.5,29-3.3a34.18,34.18,0,0,0,7.1-2.1c-.2-.7,0-1.6-.9-1.9-2.8-1.6-6-2-9.1-2.8a123.58,123.58,0,0,0-13.6-1.9l-.5-.3c-10.7-.9-21.3-2.2-32-2.3-10.2-.1-20.4-.6-30.6-1.1a9,9,0,0,0-1-.9c.2-.2.6-.8.8-1,7.3-1.5,14.8-1.1,22.1-2.8-4.4-1.2-9-.7-13.5-.6-12.4-1-24.7.3-37.1.5-5.1.1-10.5.5-15.3-1.5a6.75,6.75,0,0,1,.2-1.4c5.4-1.6,11.1-1.4,16.6-1.5,8.9-.1,17.8-1.5,26.8-1.5l-2.8-2.2c-9.8-1.8-19.9-.5-29.8-1.4a68.28,68.28,0,0,1-11.1-.8c-2.3-.4-5-.1-6.9-1.9,7.3-2.3,15-1.3,22.5-1.5a17,17,0,0,0,5.4-1.7c-6.5-1.6-13.2-.9-19.8-1.2a4.08,4.08,0,0,1-.9-5.8c1.9-3,5.8-2.7,8.9-3.2,1.1-.2,1-1.5,1.1-2.3-1.1-.4-2.2-.9-3.3-1.3.3-1.8.6-3.8,2.2-4.9,1.7-.7,3.5-1,5.2-1.6a18.86,18.86,0,0,1-.6-7.1c.5-1.5,1.1-3,1.5-4.5-.2-1.8-1.5-3.3-1.7-5.1a7.66,7.66,0,0,1,2.4-6.2c2-1.1,3.9.5,5.4,1.6A10.1,10.1,0,0,1,226.6,360.4Z"/><path class="cls-2" d="M380.9,377.8c8.3-6.5,19.7-8,29.8-5.4a22.09,22.09,0,0,1,14.9,11.2c6.8,11.9,6.9,26,6.9,39.3-19.7.2-39.3-.2-59,.2l-5.3-.3a167.92,167.92,0,0,1,.9-23.5C370.4,391.1,374,382.7,380.9,377.8Z"/><path class="cls-2" d="M332.5,34.7a33.8,33.8,0,0,1,1.8-6.2c-1.1,3.4-1.2,6.9-1.6,10.4-1-3.2-1.2-6.5-2-9.7C331.4,31,331.9,32.9,332.5,34.7Z"/><path class="cls-2" d="M530.8,110.1a30,30,0,0,1,.1,6.7A50,50,0,0,0,530.8,110.1Z"/><path class="cls-2" d="M420.1,198.8c-1.4.7-3.1.8-4.5,1.6a41.73,41.73,0,0,0-.1,5,35.74,35.74,0,0,0,4.7-1.1c.7-1.3.6-2.9,1-4.3A12,12,0,0,0,420.1,198.8Zm-4,6.2c.1-1.4-.5-3.1.6-4.3,1.4-1.5,4,.4,3.5,2.2C420.6,205.2,417.4,204.5,416.1,205Z"/><path class="cls-2" d="M636.3,413.1c-7.7.9-15.5.4-23.3.4-3.9-.4-7.9-.2-11.8-.3-10.6,0-21.3-.2-31.9-.1-7.9,0-15.8-.2-23.7.5-3.2.3-6.8-.2-9.5,1.9,5.5,2.9,11.8,1.8,17.7,2.4,8.1.6,16.5.6,24.1,3.6-1.6,1.8-4.2,1.2-6.3,1.4-12.3-.4-24.7.1-37,.7a77.07,77.07,0,0,0-8.4,1c3.7,1.7,8,1.4,12,1.8,11.6,1,23.3.9,34.8,2.5,2.8.6,6,.5,8.4,2.3-.8.2-2.2.7-3,.9-9.9,1.2-19.9.7-29.9.8-13.6-.1-27.2.3-40.7.3-5.9.3-12.2,0-17.6,2.6v.8c8.1,2.5,16.7,3,25.1,4,7.9.9,15.8,2,23.7,3.1,12.4,2,24.8,3.8,37.1,6.6l.5.3c2,.6,4.3,1,5.8,2.7-.3,1.8-2.7,1.7-4,2.3a461.75,461.75,0,0,1-48.3,7.5c-12,1.3-24,1.3-36,1.1-.5-2.5-1.2-4.9-1.7-7.3,7.6-1,15.1-2.2,22.8-2.7,7.5-.9,15.3-.4,22.7-2.6v-1.3c-13.5-4.1-27.8-5.4-41.8-6.6-12.2-.7-24.5-1.9-36.4-5-4-1.2-8.1-2.4-11.5-4.7,11.4-3.7,23.4-5,35.3-6,7.9-.6,15.9-.3,23.8-.6-.5-.1-1.5-.2-2-.3l.1-.6c-1.4-.7-4-.7-3.9-2.7-1-13.1-1.8-26.3-2.3-39.5-.8-6.8-.2-13.7-1-20.5-.2-5.8-.3-11.5-.4-17.3l-.4-.5c0-3.1,0-6.2-.2-9.3-10-.2-20,.2-30,.1-1.3,19.4-2,38.8-3,58.1-.4,4.9-.4,9.9-.6,14.8-.6,4.4-.4,8.8-.6,13.1-3.4.1-6.8,0-10.2,0-1.3-21.2-2.9-42.4-3.7-63.7,1.7-1.9,4.4-3.1,4.5-6-4.6-.3-9.3-.3-13.9-.6a26.78,26.78,0,0,1,3.6-5.2c4.3,0,8.7.1,13,0,.3-6.7.6-13.5,1.5-20.2h3.4a15.4,15.4,0,0,1,.9-3.7,2.19,2.19,0,0,1,.9-1h0a1.88,1.88,0,0,1,2.4.7,7.32,7.32,0,0,1,1,3.9c2.3.2,4.6.1,6.9.1a8.12,8.12,0,0,1,1.2-4,1.78,1.78,0,0,1,3,0,9,9,0,0,1,1.3,4H485a20,20,0,0,1,.9-3.5,2.1,2.1,0,0,1,.8-1.1l.1-.1a1.65,1.65,0,0,1,1.9,0l.1.1a1.59,1.59,0,0,1,.8,1,23.69,23.69,0,0,1,.9,3.6h6.4c.1-1.8.2-3.9,1.9-4.7a1.45,1.45,0,0,1,1.1-.1h0a2.08,2.08,0,0,1,1.6,1.4,20,20,0,0,1,.9,3.5h4.8v-2.4h16.2c.2,8,.4,16,.7,23.9-2,.1-4,.1-6,.2,0-2.4,0-4.8.1-7.2a40.53,40.53,0,0,0-7.8.9v6.2c-1.6,0-3.2-.1-4.8-.1l.5,7.3c15.2,0,30.4-.1,45.6-.1v.3a59.28,59.28,0,0,1-.7,5.9H506.5l1.4,19.5c2.3,1.3,5.5,2.7,5.2,5.9.2,1.8-.9,4.2.9,5.4,1.1.6,2.4.1,3.6.1,0-2.1-.5-4.2-.7-6.3,0-2,2-3.4,3.8-3.9a16.14,16.14,0,0,0,4.9.7c-1.6-4.9,2.8-9.1,7.1-10.5,1.6,0,3.4,0,4.7,1.1,2.1,1.2,2.6,3.8,3.4,5.9a32.82,32.82,0,0,1,3.8-2.7,5.17,5.17,0,0,1,3.3,4.2c-.5,1.9-1.7,3.7-1.4,5.7.8,1.3,2.3,1.5,3.6,1.9.3-7.1-.7-14.2-.6-21.3,4.1-2.3,9.3,2,8.1,6.5a6.73,6.73,0,0,1-1.1.7c1.9.8,4.1,1.7,4.8,3.8.8,2.7-.6,5.2-1.8,7.5,4.1,1.5,7.3,5.6,7,10-.2,2.6-2,4.7-3.9,6.3.1.3.1.4.2.7a23.27,23.27,0,0,0,9.8-.9c-.4-13.6-1.4-27.3-1.9-40.9-.7-6.2-.3-12.4-1-18.5-.2-2.3-.2-4.5-.2-6.8a54.86,54.86,0,0,1,8.1.3c1.5,11.6,3,23.1,4.5,34.7,2.3-2.3,6.5-1.3,7.8,1.6,1.2,2.2,0,4.6-1,6.6,2,.9,4,2.1,4.6,4.4,1.2,3.3-.8,6.6-1.8,9.8,4.4,1.9,7.3,7.7,4.1,11.9,3.5,2.5,7.8,3.1,11.9,3.5,4.2.7,8.5.4,12.7.8,4.7.6,9.5.1,14,1.6C635.4,411.4,635.9,412.3,636.3,413.1Z"/><path class="cls-3" d="M748.8,592.8a6.29,6.29,0,0,0-5.2-2.8,7.72,7.72,0,0,0-1.5.2,6,6,0,0,0-4.6,4.8,6.37,6.37,0,0,0,2,6.5,5.85,5.85,0,0,0,4,1.5,6.36,6.36,0,0,0,6.2-4.6A6.27,6.27,0,0,0,748.8,592.8Zm-.2,5.2a5.25,5.25,0,0,1-8.4,2.6c-3.3-2.6-2-8.6,2.2-9.5C746.2,590,750,594.3,748.6,598Z"/><path class="cls-4" d="M742.4,597.2v2.4h-1.3v-6.3h1.8a3.09,3.09,0,0,1,1.9.5,1.89,1.89,0,0,1,.3,2.4,2.18,2.18,0,0,1-.9.7c1,1.4,1.6,2.3,1.9,2.8h-1.5l-1.5-2.4h-.7Zm0-1.1h.4a2,2,0,0,0,.9-.2.78.78,0,0,0,.3-.7.6.6,0,0,0-.3-.6,2.15,2.15,0,0,0-1-.2h-.4l.1,1.7Z"/><path class="cls-4" d="M135.38,492.52a15.34,15.34,0,0,0-3.79-3.17l15.24-11.25h.11l.1.1.2.1.51.31.72.41a10.19,10.19,0,0,1,1.74,1.23,26,26,0,0,1,2,1.63A20.64,20.64,0,0,1,156,487a16.44,16.44,0,0,1,1.64,7.26v93.49q0,8.79,7.26,13.19L149.8,612.19l-.1-.1h-.11q-8.9-6.65-10.33-16.26l-.3.1v-9.62q-37.44,30.8-38.56,30.79Q83,607.89,76,592.55,44.56,617.11,43.43,617.1a59.6,59.6,0,0,1-16-13.71q-9.62-11.86-11.66-30.68-.41-4.1-.41-8.08a58.36,58.36,0,0,1,9.72-33q11.86-17.69,13-19.74A21.38,21.38,0,0,0,41,501.72V500.6A10.09,10.09,0,0,0,38.82,495a5.79,5.79,0,0,0-4.7-2.25h-.21a8.61,8.61,0,0,0-6.75,3.07,6.94,6.94,0,0,0-1.74,4.61,9,9,0,0,0,.62,3.17l-.1-.11-.41-.4c-.41-.41-.82-.86-1.23-1.34-.55-.75-1-1.46-1.43-2.14A15.94,15.94,0,0,1,21.74,497a19.82,19.82,0,0,1-1.12-6.24,13.44,13.44,0,0,1,2-7.26q3.38-5.62,11.66-7.16a18.4,18.4,0,0,1,3.28-.31A14.29,14.29,0,0,1,45.06,478q5.84,3.47,17.6,12.88l-4.61,5.94q-4.61,5.82-9.72,16.77Q38,533.14,36.78,542.84a74.76,74.76,0,0,0-.51,8.6,61.37,61.37,0,0,0,3.47,20.76,53.15,53.15,0,0,0,18.52,25.26l15.13-11.25a58.74,58.74,0,0,1-2.86-18.31,65.75,65.75,0,0,1,.92-10.74,78.75,78.75,0,0,1,11.76-31.5,74.21,74.21,0,0,1,10.23-12.89,1.68,1.68,0,0,0,.51-1.23q0-2.25-4.29-7.15c-1.37-1.5-3-3.21-4.91-5.12-.75-.68-1.5-1.4-2.25-2.15l-1-.92a9.65,9.65,0,0,0-.81-.71L101.42,480a61.68,61.68,0,0,1,7.67,9.51c2.73,4,4.09,6.58,4.09,7.88a.84.84,0,0,1-.2.61,77.5,77.5,0,0,0-10,13.1,80.15,80.15,0,0,0-11.25,31.7,77.29,77.29,0,0,0-.51,8.7,62.56,62.56,0,0,0,3.38,20.66,54,54,0,0,0,18.51,25.26L139,578V502.24A14.31,14.31,0,0,0,135.38,492.52Z"/><path class="cls-4" d="M226.91,584.47a16.66,16.66,0,0,0,2.45,3.58,20.68,20.68,0,0,0,3.79,3.07l-15.24,11.25a18,18,0,0,1-6.45-6.54,35.87,35.87,0,0,1-3.27-7.57l-19,14.11q-13.81-5.42-16-17.9h-.1a28.28,28.28,0,0,1-.51-4.7h.1v-35q0-5.43,5.73-11.56A59.83,59.83,0,0,1,191,523.31a121.4,121.4,0,0,1,18.31-9.62q9,3.48,13.09,10.13A22.74,22.74,0,0,1,225.68,536v43.78A9.68,9.68,0,0,0,226.91,584.47ZM201.24,528q-9.83,7.26-9.82,15.55v36.72q0,4.4,5.93,7.77l9.72-7.16.1-45.1Q207.17,531.38,201.24,528Z"/><path class="cls-4" d="M239.89,496.2a16.35,16.35,0,0,0-2.55-4.09,14.94,14.94,0,0,0-3.69-3.07l15.24-11.25H249l.1.1.2.11.52.3.71.41a10.19,10.19,0,0,1,1.74,1.23,14.17,14.17,0,0,1,1.94,1.64,18.12,18.12,0,0,1,3.79,5,16.23,16.23,0,0,1,1.74,7.36v84.18q0,8.7,7.26,13l-15.14,11.25-.1-.1h-.1q-10.65-8-10.64-20.15V502.24A15.84,15.84,0,0,0,239.89,496.2Z"/><path class="cls-4" d="M295.84,577.93a14.69,14.69,0,0,0,3.68,10,14,14,0,0,0,3.68,3.17l-15.13,11.25-.11-.1h-.2l-.2-.1-.52-.31-.71-.41q-.82-.62-1.74-1.23a22.81,22.81,0,0,1-1.94-1.73,16.68,16.68,0,0,1-3.79-5,15.61,15.61,0,0,1-1.74-7.26v-62.9h-7.57l4.09-9.62h3.58c0-4.36-.4-7.46-1.22-9.3a16.55,16.55,0,0,0-2.56-4.1,14.81,14.81,0,0,0-3.68-3.06L285,486h.1l.1.11.21.1.51.31.71.4a10,10,0,0,1,1.74,1.23,21,21,0,0,1,2.05,1.64,19.44,19.44,0,0,1,3.68,5,16.24,16.24,0,0,1,1.74,7.37v11.55h8.69l-4.09,9.62h-4.6Z"/><path class="cls-4" d="M360.17,574.24a25,25,0,0,1-.2,3.17,17.54,17.54,0,0,1-4.6,10.34q-.62.51-16.47,12.47a10.87,10.87,0,0,1-6.55,2.15q-4.5,0-10.12-3.48-9.93-6-10.74-14.73l14.21-10.53a17.47,17.47,0,0,0,2.46,5.11q4.69,6.75,11,8.39a7.68,7.68,0,0,0,2.05.31,4.43,4.43,0,0,0,4.19-2.46,4.89,4.89,0,0,0,.52-1.53l.1-.72V582a7.29,7.29,0,0,0,.1-1.23,7.54,7.54,0,0,0-.2-1.74q-1.84-9.19-13.1-14.88t-14.32-7.93q-7.77-5.93-7.77-13.81v-1.12a17.85,17.85,0,0,1,5.52-12.07l1-.92,19.74-14.73a17.11,17.11,0,0,1,1.94-.1q6.24,0,12.48,4.5a25.59,25.59,0,0,1,9.61,11.86L346.47,540.8c0-.27-1-1.74-3.07-4.4a24.3,24.3,0,0,0-6.24-5.73,14.12,14.12,0,0,0-6.44-2h-.41a3.07,3.07,0,0,0-1.74.41l-.21.2a5.35,5.35,0,0,0-2.15,4.5v.2a10,10,0,0,0,.52,2.25,12.08,12.08,0,0,0,.81,1.74q2.46,3.69,16.52,11.82t15.29,16A49.63,49.63,0,0,1,360.17,574.24Z"/><path class="cls-4" d="M485.77,492.52a15.31,15.31,0,0,0-3.78-3.17l15.24-11.25h.1l.1.1.21.1.51.31.71.41a9.46,9.46,0,0,1,1.74,1.23c.75.54,1.43,1.09,2,1.63a20.6,20.6,0,0,1,3.78,5.12,16.44,16.44,0,0,1,1.64,7.26v93.49q0,8.79,7.26,13.19l-15.14,11.25-.1-.1H500q-8.89-6.65-10.33-16.26l-.31.1v-9.62q-37.44,30.8-38.56,30.79-17.39-9.21-24.45-24.55-31.39,24.56-32.52,24.55a59.91,59.91,0,0,1-16-13.71q-9.62-11.86-11.66-30.68-.4-4.1-.41-8.08a58.36,58.36,0,0,1,9.72-33q11.87-17.69,13-19.74a21.38,21.38,0,0,0,2.86-10.13V500.6a10.15,10.15,0,0,0-2.14-5.63,5.82,5.82,0,0,0-4.71-2.25h-.2a8.58,8.58,0,0,0-6.75,3.07,6.94,6.94,0,0,0-1.74,4.61,9,9,0,0,0,.61,3.17l-.1-.11-.41-.4c-.41-.41-.82-.86-1.23-1.34-.54-.75-1-1.46-1.43-2.14a16.88,16.88,0,0,1-1.13-2.56,19.82,19.82,0,0,1-1.12-6.24,13.36,13.36,0,0,1,2.05-7.26q3.38-5.62,11.66-7.16a18.29,18.29,0,0,1,3.27-.31,14.35,14.35,0,0,1,7.47,1.95q5.82,3.47,17.59,12.88l-4.6,5.94q-4.6,5.82-9.72,16.77-10.34,19.54-11.56,29.25a74.76,74.76,0,0,0-.51,8.6,61.13,61.13,0,0,0,3.48,20.76,53.07,53.07,0,0,0,18.51,25.26l15.14-11.25a58.74,58.74,0,0,1-2.87-18.31,65.75,65.75,0,0,1,.92-10.74,78.92,78.92,0,0,1,11.77-31.5,73.28,73.28,0,0,1,10.23-12.89,1.68,1.68,0,0,0,.51-1.23c0-1.5-1.44-3.88-4.3-7.15q-2-2.25-4.91-5.12c-.75-.68-1.5-1.4-2.25-2.15l-1-.92c-.21-.2-.48-.44-.82-.71L451.81,480a61.09,61.09,0,0,1,7.67,9.51c2.73,4,4.1,6.58,4.1,7.88a.81.81,0,0,1-.21.61,78,78,0,0,0-10,13.1,79.84,79.84,0,0,0-11.25,31.7,77.36,77.36,0,0,0-.52,8.7A62.56,62.56,0,0,0,445,572.2a54.06,54.06,0,0,0,18.51,25.26L489.35,578V502.24A14.27,14.27,0,0,0,485.77,492.52Z"/><path class="cls-4" d="M550.4,602.37c-.88-.07-1.8-.17-2.76-.31a34.64,34.64,0,0,1-3.68-.81,30.39,30.39,0,0,1-9-4.3q-11.67-8.18-14.83-26.59a60.91,60.91,0,0,1-1-11.25,71.08,71.08,0,0,1,1.44-14A46,46,0,0,1,529,525.56q7.79-9.82,21.07-13.3,22.6,6.56,22.61,52,0,10.34-1.13,22.5l-1.84.92ZM539.46,526q-4.61,7.88-4.61,20.35A94.91,94.91,0,0,0,536.49,563a29.34,29.34,0,0,0,5.73,13.71A24.15,24.15,0,0,0,555,585.9V566.68Q554.81,526.06,539.46,526Z"/><path class="cls-4" d="M633.55,524l-15.44,11.46q-.21-4.2-5.83-7.47l-9.92,7.26v42.45a16.36,16.36,0,0,0,1.12,6,14.21,14.21,0,0,0,2.56,4.09,13.2,13.2,0,0,0,3.68,3.27l-15.24,11.25-.1-.1h-.1l-.21-.1-.51-.31-.72-.41c-.61-.41-1.19-.82-1.73-1.23-.69-.54-1.37-1.12-2.05-1.73a17.32,17.32,0,0,1-3.68-5,15.61,15.61,0,0,1-1.74-7.26V538.45a14.72,14.72,0,0,0-3.68-10,13.9,13.9,0,0,0-3.69-3.17L591.41,514h.1l.31.2.41.21.61.3c.48.35,1,.69,1.54,1s1.19,1,1.74,1.43a18.63,18.63,0,0,1,3.58,4.09,15,15,0,0,1,2.35,5.93l18.31-13.5Q629.46,517.28,633.55,524Z"/><path class="cls-4" d="M639.28,496.2a16.68,16.68,0,0,0-2.56-4.09A15.09,15.09,0,0,0,633,489l15.24-11.25h.1l.1.1.21.11.51.3.71.41a9.46,9.46,0,0,1,1.74,1.23,14.87,14.87,0,0,1,2,1.64,18.27,18.27,0,0,1,3.78,5,16.23,16.23,0,0,1,1.74,7.36v84.18q0,8.7,7.26,13l-15.14,11.25-.1-.1H651q-10.63-8-10.64-20.15V502.24A15.84,15.84,0,0,0,639.28,496.2Z"/><path class="cls-4" d="M713.22,596.34a24.07,24.07,0,0,1-3.78-7.88l-18.82,13.91q-13.82-5.42-16-17.9h-.1a30.58,30.58,0,0,1-.51-4.7h.1v-35q0-5.43,5.73-11.56a59.83,59.83,0,0,1,12.58-9.92,125.14,125.14,0,0,1,16.16-8.7V502.24a15.84,15.84,0,0,0-1.12-6,16.68,16.68,0,0,0-2.56-4.09,15.09,15.09,0,0,0-3.68-3.07l15.24-11.25h.1l.1.1.21.11.51.3.71.41a9.46,9.46,0,0,1,1.74,1.23,14.17,14.17,0,0,1,1.94,1.64,18.12,18.12,0,0,1,3.79,5,16.23,16.23,0,0,1,1.74,7.36v84.28a14.28,14.28,0,0,0,3.58,9.92,17.77,17.77,0,0,0,3.68,3l-15.14,11.25h-.1A17.82,17.82,0,0,1,713.22,596.34ZM702.69,528q-9.83,7.26-9.82,15.55v36.72q0,4.4,5.93,7.77l9.72-7.16.1-45.1Q708.62,531.38,702.69,528Z"/></svg>